

Format                           : AVI
Format/Info                      : Audio Video Interleave
File size                        : 701 MiB
Duration                         : 2h 1mn
Overall bit rate                 : 804 Kbps
Writing application              : VirtualDubMod 1.5.4.1 (build 2178/release)
Writing library                  : VirtualDubMod build 2178/release

Video
ID                               : 0
Format                           : MPEG-4 Visual
Format settings, BVOP            : Yes
Format settings, QPel            : No
Format settings, GMC             : No warppoints
Format settings, Matrix          : Default (H.263)
Muxing mode                      : Packed bitstream
Codec ID                         : DX50
Codec ID/Hint                    : DivX 5
Duration                         : 2h 1mn
Bit rate                         : 677 Kbps
Width                            : 720 pixels
Height                           : 304 pixels
Display aspect ratio             : 2.35:1
Frame rate                       : 23.976 fps
Color space                      : YUV
Chroma subsampling               : 4:2:0
Bit depth                        : 8 bits
Scan type                        : Progressive
Bits/(Pixel*Frame)               : 0.129
Stream size                      : 590 MiB (84%)
Writing library                  : DivX 6.5.1 (UTC 2007-03)

Audio
ID                               : 1
Format                           : MPEG Audio
Format version                   : Version 1
Format profile                   : Layer 3
Mode                             : Joint stereo
Mode extension                   : MS Stereo
Codec ID                         : 55
Codec ID/Hint                    : MP3
Duration                         : 2h 1mn
Bit rate mode                    : Variable
Bit rate                         : 114 Kbps
Nominal bit rate                 : 128 Kbps
Channel(s)                       : 2 channels
Sampling rate                    : 48.0 KHz
Stream size                      : 99.6 MiB (14%)
Alignment                        : Aligned on interleaves
Interleave, duration             : 24 ms (0.58 video frame)
Interleave, preload duration     : 161 ms
Writing library                  : LAME3.97 
Encoding settings                : -m j -V 4 -q 2 -lowpass 17 --abr 128
Language                         : English

=========================== CAST ===========================================


 	Laura Linney	 ...	
Erin Bruner
 	Tom Wilkinson	 ...	
Father Moore
 	Campbell Scott	 ...	
Ethan Thomas
 	Jennifer Carpenter	 ...	
Emily Rose
 	Colm Feore	 ...	
Karl Gunderson
 	Joshua Close	 ...	
Jason
 	Kenneth Welsh	 ...	
Dr. Mueller
 	Duncan Fraser	 ...	
Dr. Cartwright
 	JR Bourne	 ...	
Ray
 	Mary Beth Hurt	 ...	
Judge Brewster
 	Henry Czerny	 ...	
Dr. Briggs
 	Shohreh Aghdashloo	 ...	
Dr. Adani

===============================REVIEWS ON=====================================

             http://www.rottentomatoes.com/m/exorcism_of_emily_rose/

              http://www.imdb.com/title/tt0404032/

=========================SCREENSHOT===========================================

              http://bayimg.com/haIhKaAdi

===========================================================================

When a younger girl called Emily Rose dies, everyone puts blame on the exorcism which was performed on her by Father Moore prior to her death. The priest is arrested on suspicion of murder. The trail begins with lawyer Erin Bruner representing Moore, but it is not going to be easy, as no one wants to believe what Father Moore says is true.
================================================================================

   
PG-13, 1 hr. 58 min.
Drama, Horror, Mystery & Suspense
Directed By: Scott Derrickson
Written By: Scott Derrickson, Paul Harris Boardman
In Theaters: Sep 9, 2005 Wide
On DVD: Dec 20, 2005
US Box Office:$75.1M
Sony Pictures

===============================================================================
